<svg width="93" height="93" viewBox="0 0 93 93" fill="none" xmlns="http://www.w3.org/2000/svg">
<circle cx="46.5" cy="46.5" r="46.5" fill="#F5F6F7"/>
<path d="M51.1667 41.1666L49.9167 39.0833H44.0833L42.8333 41.1666H37V54.9166H57V41.1666H51.1667ZM56.1667 54.0833H37.8333V41.9999H43.305L44.5554 39.9166H49.4446L50.6946 41.9999H56.1667V54.0833ZM47 44.0833C44.6992 44.0833 42.8333 45.9491 42.8333 48.2499C42.8333 50.5503 44.6992 52.4166 47 52.4166C49.3012 52.4166 51.1667 50.5503 51.1667 48.2499C51.1667 45.9491 49.3012 44.0833 47 44.0833ZM47 51.5833C45.1592 51.5833 43.6667 50.0908 43.6667 48.2499C43.6667 46.4091 45.1592 44.9166 47 44.9166C48.8408 44.9166 50.3333 46.4091 50.3333 48.2499C50.3333 50.0908 48.8408 51.5833 47 51.5833Z" fill="#222222"/>
</svg>
